<svg width="32.1" height="38.1" xmlns="http://www.w3.org/2000/svg" xmlns:xlink="http://www.w3.org/1999/xlink">
 <!-- Generator: Sketch 64 (93537) - https://sketch.com -->
 <title>New pin / Text Hover</title>
 <desc>Created with Sketch.</desc>
 <defs>
  <path id="path-1" d="m18,2c8.83656,0 16,7.16344 16,16c0,6.87175 -4.33202,12.7317 -10.41408,14.99788l0.01408,-0.00788c-1.5065,0.73381 -2.37536,2.17435 -2.60657,4.32162c-0.16468,1.52916 -1.45542,2.68838 -2.99343,2.68838c-1.53801,0 -2.82875,-1.15922 -2.99343,-2.68838c-0.23048,-2.14047 -1.09457,-3.57868 -2.59228,-4.31463c-6.08227,-2.26529 -10.41429,-8.12524 -10.41429,-14.99699c0,-8.83656 7.16344,-16 16,-16z"/>
 </defs>
 <g>
  <title>background</title>
  <rect fill="none" id="canvas_background" height="40.1" width="34.1" y="-1" x="-1"/>
 </g>
 <g>
  <title>Layer 1</title>
  <g id="New-pin-/-Default-Hover">
   <g id="Combined-Shape">
    <use id="svg_2" x="-2" y="-2" xlink:href="#path-1" fill-rule="evenodd" fill="#FFFFFF"/>
   </g>
   <path fill-rule="evenodd" fill="#F84177" id="Combined-Shape" d="m16,2.18755c7.73199,0 14,6.26801 14,14c0,6.39761 -4.29124,11.79294 -10.15237,13.46464l0.15237,-0.05464c-1.53588,0.48534 -2.50562,2.38887 -2.90922,5.7106c-0.06097,0.50196 -0.48705,0.8794 -0.9927,0.8794l-0.1962,0c-0.50562,-0.00005 -0.93168,-0.37748 -0.99266,-0.87941c-0.38962,-3.20718 -1.30673,-5.09229 -2.75131,-5.65532l-0.07129,-0.01955c-5.82744,-1.69318 -10.08662,-7.07206 -10.08662,-13.44572c0,-7.73199 6.26801,-14 14,-14z"/>
   <circle r="5" cy="15.81245" cx="16.06252" fill-rule="evenodd" fill="#FFFFFF" id="Oval"/>
  </g>
 </g>
</svg>