<svg width="28.1" height="36.1" xmlns="http://www.w3.org/2000/svg" xmlns:xlink="http://www.w3.org/1999/xlink">
 <!-- Generator: Sketch 64 (93537) - https://sketch.com -->
 <title>New pi11n / Default</title>
 <desc>Created with Sketch.</desc>
 <defs>
  <path id="path-1" d="m18,4c7.73199,0 14,6.26801 14,14c0,5.74906 -3.4653,10.68875 -8.42111,12.84428l0.02111,-0.01428c-1.37434,0.88275 -2.20383,2.9872 -2.48847,6.31337c-0.13826,1.61561 -1.49001,2.85663 -3.11153,2.85663c-1.62152,0 -2.97327,-1.24102 -3.11153,-2.85663c-0.28317,-3.30892 -1.10555,-5.40877 -2.46714,-6.29954c-4.95603,-2.15508 -8.42133,-7.09477 -8.42133,-12.84383c0,-7.73199 6.26801,-14 14,-14z"/>
 </defs>
 <g>
  <title>background</title>
  <rect fill="none" id="canvas_background" height="38.1" width="30.1" y="-1" x="-1"/>
 </g>
 <g>
  <title>Layer 1</title>
  <g fill-rule="evenodd" fill="none" id="Symbols">
   <g stroke="null" id="New-pin-/-Default">
    <g stroke="null" id="Combined-Shape">
     <use stroke="null" id="svg_2" x="-4" y="-4" xlink:href="#path-1" fill-rule="evenodd" fill="#FFFFFF"/>
    </g>
    <path stroke="null" fill-rule="evenodd" fill="#6339F5" id="Combined-Shape" d="m13.93739,1.87478c6.62742,0 12,5.37258 12,12c0,5.26658 -3.39275,9.74074 -8.11186,11.35609c-1.20363,0.54676 -2.12826,3.14108 -2.77428,7.78178c-0.06879,0.49425 -0.49143,0.86213 -0.99044,0.86213l-0.24654,0c-0.49914,0.00004 -0.92185,-0.368 -0.99053,-0.86239c-0.64417,-4.63677 -1.5675,-7.23055 -2.76997,-7.78136c-4.72171,-1.61298 -8.11638,-6.08818 -8.11638,-11.35625c0,-6.62742 5.37258,-12 12,-12z"/>
    <circle stroke="null" r="4" cy="13.87478" cx="13.93739" fill-rule="evenodd" fill="#FFFFFF" id="Oval"/>
   </g>
  </g>
 </g>
</svg>