<svg width="511.98644999999993" height="511.00000000000006" xmlns="http://www.w3.org/2000/svg">
 <defs>
  <filter height="200%" width="200%" y="-50%" x="-50%" id="svg_1_blur">
   <feGaussianBlur stdDeviation="0" in="SourceGraphic"/>
  </filter>
 </defs>
 <g>
  <title>background</title>
  <rect fill="none" id="canvas_background" height="602" width="802" y="-1" x="-1"/>
 </g>
 <g>
  <title>Layer 1</title>
  <path filter="url(#svg_1_blur)" stroke="null" id="svg_1" fill="#ffc107" d="m1020.13493,235.69414c-3.19922,-9.92188 -11.98828,-16.9375 -22.39844,-17.89844l-141.35547,-12.84375l-55.89453,-130.83594c-4.11719,-9.57812 -13.5039,-15.76562 -23.93359,-15.76562c-10.4336,0 -19.82031,6.20703 -23.9375,15.80859l-55.89063,130.81641l-141.3789,12.83984c-10.38672,0.94141 -19.17578,7.95703 -22.37891,17.87891c-3.21875,9.92187 -0.23437,20.77734 7.61719,27.64843l106.85937,93.69532l-31.51172,138.77343c-2.30078,10.19922 1.66407,20.73438 10.13672,26.87891c4.51953,3.32813 9.875,4.99219 15.23047,4.99219c4.62891,0 9.23828,-1.23438 13.35547,-3.71094l121.89844,-72.89453l121.875,72.875c8.91797,5.35156 20.16015,4.88281 28.60937,-1.23828c8.46875,-6.14453 12.4375,-16.6836 10.13282,-26.88281l-31.50782,-138.76954l106.85938,-93.69922c7.84765,-6.86718 10.83594,-17.72656 7.61328,-27.66796zm0,0"/>
  <path id="svg_8" d="m254.49323,42.95313" opacity="0.5" fill-opacity="null" stroke-opacity="null" stroke-width="NaN" stroke="null" fill="#ffc107"/>
  <path id="svg_14" d="m118.14708,460.92305" opacity="0.5" fill-opacity="null" stroke-opacity="null" stroke-width="NaN" stroke="null" fill="#ffc107"/>
  <path id="svg_16" d="m255.97484,28.9072c0,0 0,365.63995 -0.0546,365.46953c0.0546,0.17042 -145.57104,76.4074 -145.62564,76.25034c0.0546,0.15706 27.55472,-165.46866 27.50012,-165.62573c0.0546,0.15707 -117.44591,-109.84341 -117.50052,-110.00048c0.05461,0.15707 -7.44543,-22.34303 155.05528,-30.46806" fill-opacity="null" stroke-opacity="null" stroke-width="NaN" stroke="null" fill="#ffc107"/>
  <path id="svg_2" d="m114.61719,491.13672c-5.63281,0 -11.20313,-1.74609 -15.95703,-5.18359c-8.85547,-6.39844 -12.99219,-17.42969 -10.58203,-28.09375l32.9375,-145.06641l-111.70313,-97.96485c-8.21094,-7.1875 -11.34766,-18.51562 -7.97656,-28.90625c3.37109,-10.36718 12.54297,-17.72656 23.40234,-18.73046l147.82031,-13.41797l58.41016,-136.7461c4.30859,-10.04687 14.12109,-16.53515 25.02344,-16.53515c10.90234,0 20.71484,6.48828 25.02344,16.51172l58.41015,136.76953l147.79688,13.41797c10.88281,0.98046 20.05468,8.34375 23.42578,18.71093c3.37109,10.38672 0.2539,21.73828 -7.98047,28.90625l-111.67969,97.94141l32.9375,145.06641c2.41406,10.66797 -1.72656,21.69531 -10.57812,28.09375c-8.8125,6.3789 -20.56641,6.91406 -29.89063,1.32422l-127.46484,-76.16016l-127.44531,76.20312c-4.3086,2.58204 -9.10938,3.85938 -13.92969,3.85938zm141.375,-112.87109c4.84375,0 9.64062,1.30078 13.95312,3.85937l120.27735,71.9375l-31.08594,-136.94141c-2.21875,-9.76953 1.08984,-19.92578 8.62109,-26.51562l105.47266,-92.52344l-139.54297,-12.67187c-10.00391,-0.89454 -18.66797,-7.1875 -22.59375,-16.46875l-55.10156,-129.04688l-55.14844,129.06641c-3.90234,9.23828 -12.5625,15.53125 -22.58984,16.42968l-139.51953,12.67188l105.46875,92.51953c7.55468,6.59375 10.83984,16.76953 8.62109,26.53906l-31.08203,136.94141l120.27734,-71.9375c4.32813,-2.55859 9.12891,-3.85937 13.97266,-3.85937zm-84.58594,-221.82422l0,0.01953l0,-0.01953zm169.15234,-0.06641l0,0.02344s0,0 0,-0.02344z"/>
 </g>
</svg>